# xmcd CD database file
#
# Track frame offsets:
#	150
#	12749
#	27454
#	42823
#	56413
#	71400
#	86824
#	96022
#	105565
#	119348
#	132246
#	150196
#	162171
#	169736
#	181105
#	196216
#	207011
#	217813
#	231693
#	248208
#
# Disc length: 3541 seconds
#
# Revision: 3
# Processed by: cddbd v1.5.2PL0 Copyright (c) Steve Scherf et al.
# Submitted via: CDex 1.51
#
DISCID=090dd314
DTITLE=Various Artist - 20 Greatest Gospel Hits
DYEAR=2002
DGENRE=Gospel
TTITLE0=Ferlin Huskey - I Won't Have to Cross Jordan Alone
TTITLE1=Sandy Posey - Wayfaring Stranger
TTITLE2=David Houston - Amazing Grace
TTITLE3=David Frizzell - Little Lord Jesus
TTITLE4=Claude Gray - Uncloudy Day
TTITLE5=Nashville Fiddles - Nearer My God To Thee
TTITLE6=Carl Smith - I Found My Jesus And He Wasn't Even Lost
TTITLE7=Nashville Harmonicas - In The Sweet By And By
TTITLE8=Norma Jean - Softly And Tenderly
TTITLE9=Josh Graves featuring Dobro - Great Speckled Bird
TTITLE10=Wilma Lee and Stoney Cooper - Hello Central, Gove Me Heaven
TTITLE11=Red Sovine - Cast Thy Bread Upon The Waters
TTITLE12=Kitty Wells - Church In The Wildwood
TTITLE13=Nashville Banjos - Jesus Loves Me
TTITLE14=David Allan Coe - Cowboy's Prayer
TTITLE15=Little Jimmy Dickens - This World Is Not My Home
TTITLE16=Carl Story - Angel Band
TTITLE17=Nashville Dulcimers - Life's Railway To Heaven
TTITLE18=George Morgan - When They Ring Those Golden Bells
TTITLE19=Stones River - That Lonesome Valley
EXTD=YEAR: 2002
EXTT0=
EXTT1=
EXTT2=
EXTT3=
EXTT4=
EXTT5=
EXTT6=
EXTT7=
EXTT8=
EXTT9=
EXTT10=
EXTT11=
EXTT12=
EXTT13=
EXTT14=
EXTT15=
EXTT16=
EXTT17=
EXTT18=
EXTT19=
PLAYORDER=
